<svg width="193" height="192" viewBox="0 0 193 192" fill="none" xmlns="http://www.w3.org/2000/svg">
<path d="M12.0308 72.8C12.0308 51.518 12.0308 40.877 16.1725 32.7484C19.8157 25.5982 25.629 19.7849 32.7791 16.1418C40.9078 12 51.5488 12 72.8308 12H119.231C140.513 12 151.154 12 159.282 16.1418C166.433 19.7849 172.246 25.5982 175.889 32.7484C180.031 40.877 180.031 51.518 180.031 72.8V119.2C180.031 140.482 180.031 151.123 175.889 159.252C172.246 166.402 166.433 172.215 159.282 175.858C151.154 180 140.513 180 119.231 180H72.8308C51.5488 180 40.9078 180 32.7791 175.858C25.629 172.215 19.8157 166.402 16.1725 159.252C12.0308 151.123 12.0308 140.482 12.0308 119.2V72.8Z" fill="#330000"/>
<path d="M93.4407 117.578H67.407L62.1102 134.454C61.9631 135.081 61.3857 135.525 60.7577 135.494H47.5718C46.8199 135.494 46.5569 135.07 46.7829 134.223L69.3228 67.6428C69.5484 66.9494 69.7738 66.1595 69.9992 65.2732C70.294 63.731 70.445 62.1635 70.45 60.592C70.3854 60.1277 70.7935 59.7176 71.2389 59.7827H89.158C89.683 59.7827 89.9835 59.9754 90.0596 60.3608L115.643 134.338C115.868 135.109 115.643 135.495 114.966 135.494H100.315C99.8014 135.552 99.3107 135.2 99.1883 134.685L93.4407 117.578ZM71.4642 103.013H89.2708C86.3452 93.0163 83.0436 83.1506 80.3676 73.0756C77.4805 83.1676 74.3305 93.2189 71.4642 103.013Z" fill="#FF9A00"/>
<path d="M130.856 72.0349C129.706 72.0823 128.56 71.8802 127.492 71.442C126.424 71.0038 125.458 70.3393 124.657 69.492C123.859 68.6079 123.239 67.5707 122.833 66.44C122.426 65.3093 122.242 64.1074 122.29 62.9034C122.249 61.7113 122.454 60.5237 122.891 59.4183C123.328 58.3128 123.987 57.3144 124.826 56.4881C125.657 55.6703 126.637 55.0297 127.711 54.6031C128.785 54.1765 129.93 53.9726 131.081 54.003C133.786 54.003 135.909 54.8313 137.449 56.4881C138.226 57.3491 138.83 58.3589 139.227 59.4597C139.623 60.5605 139.804 61.7308 139.759 62.9034C139.806 64.1121 139.616 65.3181 139.2 66.45C138.783 67.5818 138.15 68.6163 137.336 69.492C136.485 70.3518 135.471 71.0216 134.355 71.4592C133.24 71.8969 132.049 72.0929 130.856 72.0349ZM123.079 134.338V79.0858C123.079 78.3924 123.379 78.0455 123.981 78.0455H137.843C138.444 78.0455 138.744 78.3922 138.745 79.0858V134.338C138.745 135.109 138.444 135.494 137.843 135.494H124.094C123.418 135.494 123.079 135.108 123.079 134.338Z" fill="#FF9A00"/>
</svg>
