<svg width="96" height="98" viewBox="0 0 96 98" fill="none" xmlns="http://www.w3.org/2000/svg">
<path d="M39.0041 94.3182C39.4169 94.3954 39.7341 94.5781 39.9556 94.8664C40.1661 95.1621 40.238 95.4889 40.1711 95.8467C40.1025 96.2136 39.9175 96.4924 39.616 96.6829C39.3036 96.8809 38.941 96.9413 38.5282 96.8641C38.1245 96.7886 37.8174 96.6031 37.6068 96.3073C37.3853 96.0191 37.3089 95.6914 37.3775 95.3245C37.4444 94.9666 37.634 94.6888 37.9464 94.4908C38.2478 94.3003 38.6004 94.2427 39.0041 94.3182ZM39.5905 84.629C39.7671 83.684 40.1325 83.0497 40.6868 82.726C41.2427 82.3932 41.9473 82.3065 42.8006 82.466L43.7226 82.6384L43.3496 84.6338L42.7853 84.5283C42.5285 84.4803 42.3355 84.4965 42.2066 84.5768C42.0776 84.6571 41.9917 84.812 41.9488 85.0413L40.323 93.7387L37.9698 93.2988L39.5905 84.629Z" fill="white"/>
<path d="M22.6162 87.8892C22.9733 88.1103 23.203 88.3952 23.3054 88.744C23.3949 89.0959 23.3439 89.4265 23.1523 89.736C22.9557 90.0534 22.6825 90.2465 22.3326 90.3152C21.9698 90.387 21.6098 90.3123 21.2528 90.0912C20.9036 89.875 20.6843 89.591 20.5947 89.2392C20.4923 88.8904 20.5394 88.5573 20.736 88.2399C20.9276 87.9304 21.2048 87.7398 21.5676 87.668C21.9175 87.5993 22.2671 87.673 22.6162 87.8892ZM22.0319 86.5723L26.1444 79.9304L28.1798 81.1907L24.0673 87.8326L22.0319 86.5723Z" fill="white"/>
<path d="M10.9702 70.0895C11.149 69.9545 11.3436 69.8251 11.5541 69.7012L14.8192 74.0249C15.184 73.7026 15.3891 73.3547 15.4345 72.9812C15.4669 72.6059 15.3622 72.2581 15.1203 71.9379C14.7603 71.4612 14.3089 71.2816 13.7661 71.3991L12.2306 69.3658C12.719 69.1607 13.2311 69.0722 13.7669 69.1003C14.2971 69.1209 14.81 69.2658 15.3056 69.5348C15.8011 69.8039 16.2402 70.1916 16.6226 70.6981C17.0838 71.3088 17.3641 71.951 17.4634 72.6245C17.5627 73.2981 17.4715 73.9517 17.1898 74.5854C16.9082 75.2192 16.4434 75.7807 15.7954 76.2701C15.1474 76.7594 14.4829 77.0565 13.8019 77.1614C13.1153 77.2589 12.4617 77.1677 11.841 76.8879C11.2204 76.6081 10.6766 76.1591 10.2098 75.5409C9.75418 74.9376 9.47583 74.3057 9.37472 73.6452C9.27361 72.9847 9.35924 72.347 9.63161 71.732C9.89836 71.1095 10.3446 70.562 10.9702 70.0895ZM11.9439 72.4243C11.6162 72.6718 11.4399 72.9804 11.415 73.3501C11.39 73.7198 11.5041 74.0722 11.7572 74.4074C11.9991 74.7276 12.2975 74.9292 12.6524 75.012C13.0017 75.0874 13.3674 75.0218 13.7494 74.8152L11.9439 72.4243Z" fill="white"/>
<path d="M1.66687 56.4507L9.18064 54.3128L9.83579 56.6154L8.81241 56.9066C9.21097 57.0455 9.57095 57.2876 9.89236 57.6328C10.2022 57.9716 10.4261 58.3833 10.5641 58.8681C10.7275 59.4426 10.7462 59.9856 10.62 60.497C10.4848 61.0109 10.2093 61.4581 9.7935 61.8384C9.3777 62.2187 8.84214 62.5021 8.18682 62.6885L3.79705 63.9375L3.14573 61.6484L7.22579 60.4875C7.72851 60.3445 8.08197 60.1032 8.28619 59.7637C8.49041 59.4242 8.52994 59.0345 8.40479 58.5946C8.27708 58.1457 8.03704 57.8307 7.68468 57.6496C7.33232 57.4684 6.90479 57.4494 6.40207 57.5924L2.32201 58.7533L1.66687 56.4507Z" fill="white"/>
<path d="M1.12921 42.0282C1.21361 41.1175 1.57817 40.4201 2.2229 39.9362C2.8592 39.4421 3.69315 39.2429 4.72473 39.3385L9.26926 39.7596L9.04966 42.1295L4.82575 41.7381C4.30532 41.6898 3.88856 41.7871 3.57549 42.0299C3.26242 42.2728 3.08478 42.6219 3.04258 43.0772C3.00039 43.5326 3.11085 43.9084 3.37398 44.2046C3.6371 44.5008 4.02888 44.6731 4.54932 44.7213L8.77322 45.1127L8.55234 47.4965L0.77366 46.7757L0.994549 44.3919L2.02613 44.4875C1.70466 44.214 1.46529 43.8637 1.30802 43.4367C1.14145 43.0089 1.08185 42.5394 1.12921 42.0282Z" fill="white"/>
<path d="M3.27138 23.9093L5.95988 25.4513L5.24225 26.8925L2.39149 25.6763L3.27138 23.9093Z" fill="white"/>
<path d="M21.732 18.2599C21.2285 18.7189 20.7016 19.0414 20.1512 19.2274C19.6009 19.4134 19.0767 19.4618 18.5787 19.3727C18.0745 19.2767 17.6388 19.0551 17.2716 18.7078L19.0201 17.1138C19.2232 17.295 19.464 17.3722 19.7428 17.3454C20.0215 17.3187 20.2815 17.1952 20.5229 16.9752C20.7437 16.774 20.8749 16.5785 20.9167 16.3889C20.9591 16.186 20.9175 16.0156 20.7917 15.8777C20.6408 15.7121 20.4445 15.67 20.2029 15.7513C19.9551 15.8258 19.594 15.9908 19.1197 16.2463C18.6178 16.527 18.1818 16.7414 17.8116 16.8895C17.4351 17.0306 17.043 17.0785 16.6355 17.0333C16.2217 16.9811 15.8356 16.7585 15.4772 16.3653C15.1754 16.0342 14.9915 15.6524 14.9256 15.22C14.8604 14.7743 14.9313 14.3118 15.1384 13.8325C15.3525 13.3469 15.7044 12.8808 16.1941 12.4344C16.9183 11.7742 17.6508 11.4348 18.3916 11.4162C19.1393 11.3913 19.8146 11.6471 20.4174 12.1837L18.7828 13.6739C18.5728 13.4991 18.3385 13.4222 18.0799 13.4432C17.8282 13.458 17.5816 13.5755 17.3402 13.7955C17.1333 13.9842 17.0123 14.1702 16.9774 14.3535C16.9362 14.53 16.9785 14.6872 17.1043 14.8252C17.2552 14.9907 17.4546 15.0363 17.7025 14.9618C17.9573 14.8811 18.3086 14.7124 18.7565 14.4556C19.2848 14.1761 19.7337 13.9689 20.1033 13.8341C20.4666 13.6923 20.8583 13.651 21.2784 13.71C21.6991 13.7559 22.0953 13.9757 22.4669 14.3695C22.775 14.7075 22.9551 15.099 23.0072 15.544C23.0599 15.9759 22.9761 16.4312 22.7557 16.9099C22.5423 17.3823 22.2011 17.8323 21.732 18.2599Z" fill="white"/>
<path d="M46.5093 1.32082C46.7426 0.956825 47.0646 0.662825 47.4753 0.438824C47.8859 0.214824 48.3666 0.102824 48.9173 0.102824C49.5613 0.102824 50.1446 0.266158 50.6673 0.592825C51.1899 0.919491 51.6006 1.38616 51.8993 1.99282C52.2073 2.59949 52.3613 3.30416 52.3613 4.10682C52.3613 4.90949 52.2073 5.61882 51.8993 6.23482C51.6006 6.84149 51.1899 7.31282 50.6673 7.64882C50.1446 7.97549 49.5613 8.13882 48.9173 8.13882C48.3759 8.13882 47.8953 8.02682 47.4753 7.80282C47.0646 7.57882 46.7426 7.28949 46.5093 6.93482V11.7508H44.1153V0.214825L46.5093 0.214825V1.32082ZM49.9253 4.10682C49.9253 3.50949 49.7573 3.04282 49.4213 2.70682C49.0946 2.36149 48.6886 2.18882 48.2033 2.18882C47.7273 2.18882 47.3213 2.36149 46.9853 2.70682C46.6586 3.05216 46.4953 3.52349 46.4953 4.12082C46.4953 4.71816 46.6586 5.18949 46.9853 5.53482C47.3213 5.88016 47.7273 6.05282 48.2033 6.05282C48.6793 6.05282 49.0853 5.88016 49.4213 5.53482C49.7573 5.18016 49.9253 4.70416 49.9253 4.10682Z" fill="white"/>
<path d="M62.2962 10.8425C61.5826 10.566 60.9976 10.1642 60.5412 9.63707C60.0935 9.11331 59.8138 8.50452 59.7023 7.8107C59.5994 7.12025 59.6946 6.39644 59.988 5.63927C60.2779 4.89081 60.6978 4.29778 61.2477 3.8602C61.8009 3.41392 62.4238 3.14974 63.1162 3.06766C63.8086 2.98558 64.5116 3.08277 65.2253 3.35924C65.9389 3.63571 66.5239 4.03752 66.9803 4.56465C67.4367 5.09178 67.719 5.70661 67.8272 6.40914C67.9388 7.10296 67.8496 7.8241 67.5596 8.57257C67.2697 9.32103 66.8437 9.91672 66.2818 10.3596C65.7319 10.7972 65.1064 11.0554 64.4053 11.1341C63.7129 11.2161 63.0099 11.119 62.2962 10.8425ZM63.0447 8.9104C63.4712 9.07561 63.893 9.05887 64.3103 8.8602C64.7363 8.66489 65.0622 8.27568 65.2881 7.69258C65.514 7.10947 65.5397 6.60395 65.3652 6.176C65.1994 5.75143 64.9032 5.45654 64.4768 5.29133C64.0416 5.12275 63.6198 5.13948 63.2112 5.34153C62.806 5.53487 62.4887 5.92745 62.2595 6.51926C62.0336 7.10237 61.9992 7.60452 62.1563 8.02572C62.3221 8.4503 62.6183 8.74519 63.0447 8.9104Z" fill="white"/>
<path d="M79.0324 13.6427C79.5286 13.5141 80.0136 13.5016 80.4875 13.6052C80.9676 13.7019 81.3974 13.9232 81.7767 14.269L80.0696 16.1417L79.5833 15.6984C79.1419 15.296 78.7228 15.0907 78.326 15.0826C77.9355 15.0677 77.5233 15.2981 77.0895 15.7741L74.6467 18.4537L72.8775 16.8409L78.1404 11.0677L79.9096 12.6806L79.0324 13.6427Z" fill="white"/>
<path d="M89.3658 29.219L88.7917 28.066L83.5783 30.662L82.5112 28.519L87.7246 25.923L87.3377 25.146L89.1173 24.2599L89.5042 25.0369L89.7047 24.937C90.5653 24.5085 91.3397 24.4305 92.0279 24.703C92.7245 24.9712 93.31 25.5816 93.7842 26.5341C93.8633 26.6928 93.9173 26.8119 93.9464 26.8912L92.1292 27.7961C91.9505 27.3742 91.7485 27.1151 91.5232 27.0187C91.298 26.9223 91.0016 26.9657 90.6339 27.1487L90.5713 27.1799L91.1454 28.3329L89.3658 29.219Z" fill="white"/>
<path d="M86.9944 43.84C86.9238 43.0779 87.0227 42.3751 87.2912 41.7316C87.5605 41.0974 87.9808 40.5757 88.5521 40.1666C89.1243 39.7668 89.8147 39.5294 90.6233 39.4545C91.4225 39.3804 92.1405 39.4919 92.7773 39.7891C93.4234 40.0854 93.9375 40.5252 94.3196 41.1084C94.7017 41.6917 94.9281 42.3643 94.9987 43.1264C95.0693 43.8885 94.9704 44.5913 94.702 45.2348C94.4336 45.8783 94.009 46.405 93.4284 46.815C92.857 47.2242 92.1717 47.4658 91.3725 47.5398C90.5732 47.6139 89.8501 47.4981 89.2032 47.1925C88.5664 46.8953 88.0565 46.4505 87.6735 45.8579C87.2914 45.2747 87.065 44.6021 86.9944 43.84ZM89.0576 43.6488C89.0998 44.1042 89.3028 44.4744 89.6667 44.7593C90.0314 45.0536 90.525 45.1719 91.1477 45.1142C91.7704 45.0565 92.2344 44.8542 92.5396 44.5072C92.8458 44.1695 92.9778 43.773 92.9356 43.3176C92.8925 42.8529 92.6895 42.4827 92.3265 42.207C91.9728 41.9305 91.48 41.8215 90.848 41.8801C90.2254 41.9378 89.7605 42.1308 89.4535 42.4592C89.1474 42.7969 89.0154 43.1934 89.0576 43.6488Z" fill="white"/>
<path d="M95.3428 62.2092L85.3783 59.374L86.0334 57.0714L95.998 59.9066L95.3428 62.2092Z" fill="white"/>
<path d="M86.087 76.308C86.3401 75.9728 86.645 75.7704 87.0018 75.7006C87.3603 75.6439 87.6849 75.7253 87.9754 75.9446C88.2733 76.1696 88.4403 76.4595 88.4765 76.8143C88.5145 77.1821 88.4069 77.5337 88.1538 77.8688C87.9063 78.1965 87.6033 78.3888 87.2447 78.4454C86.8879 78.5152 86.5606 78.4376 86.2627 78.2126C85.9722 77.9932 85.808 77.6996 85.77 77.3318C85.7338 76.977 85.8395 76.6357 86.087 76.308ZM84.7218 76.7683L78.4877 72.0605L79.9304 70.15L86.1645 74.8578L84.7218 76.7683Z" fill="white"/>
<path d="M68.4671 80.6581C69.1178 80.2552 69.791 80.0305 70.4867 79.9839C71.1744 79.9423 71.8288 80.086 72.4497 80.4151C73.0626 80.7491 73.5829 81.2613 74.0103 81.9517C74.4329 82.6341 74.6531 83.3266 74.6709 84.0291C74.6936 84.7396 74.5291 85.3958 74.1773 85.9978C73.8256 86.5998 73.3243 87.1023 72.6736 87.5052C72.0229 87.9081 71.3497 88.1328 70.654 88.1794C69.9583 88.2259 69.2976 88.0807 68.6718 87.7436C68.0508 87.4145 67.5291 86.9088 67.1066 86.2263C66.684 85.5439 66.4653 84.845 66.4505 84.1296C66.4327 83.4271 66.6037 82.7724 66.9634 82.1655C67.3151 81.5635 67.8164 81.061 68.4671 80.6581ZM69.5578 82.4197C69.169 82.6605 68.9281 83.0072 68.8352 83.46C68.7343 83.9176 68.8485 84.4123 69.1777 84.9439C69.5069 85.4756 69.8948 85.8008 70.3415 85.9194C70.7803 86.0429 71.194 85.9843 71.5829 85.7435C71.9796 85.4979 72.2205 85.1511 72.3055 84.7033C72.3954 84.2634 72.2733 83.7737 71.9392 83.2341C71.61 82.7024 71.23 82.3724 70.7992 82.2439C70.3604 82.1204 69.9466 82.179 69.5578 82.4197Z" fill="white"/>
</svg>
