<svg width="225" height="224" viewBox="0 0 225 224" fill="none" xmlns="http://www.w3.org/2000/svg">
<path d="M166.894 49.7778L156.898 161.765L111.963 174.222L67.1515 161.782L57.1655 49.7778H166.894Z" fill="#264DE4"/>
<path d="M148.34 154.634L156.883 58.936H112.031V164.7L148.34 154.634Z" fill="#2965F1"/>
<path d="M80.0581 100.477L81.2893 114.213H112.03V100.477H80.0581Z" fill="#EBEBEB"/>
<path d="M112.029 72.6729H111.982H77.5835L78.8322 86.4099H112.029V72.6729Z" fill="#EBEBEB"/>
<path d="M112.031 150.445V136.153L111.97 136.169L96.6715 132.038L95.6935 121.082H88.2594H81.9038L83.8283 142.651L111.967 150.463L112.031 150.445Z" fill="#EBEBEB"/>
<path d="M128.897 114.213L127.303 132.029L111.982 136.164V150.456L140.143 142.651L140.35 140.33L143.578 104.165L143.913 100.477L146.393 72.6729H111.982V86.4099H131.339L130.089 100.477H111.982V114.213H128.897Z" fill="white"/>
</svg>
