<svg width="193" height="192" viewBox="0 0 193 192" fill="none" xmlns="http://www.w3.org/2000/svg">
<path fill-rule="evenodd" clip-rule="evenodd" d="M96.0308 96C96.0308 82.7452 106.776 72 120.031 72C133.286 72 144.031 82.7452 144.031 96C144.031 109.255 133.286 120 120.031 120C106.776 120 96.0308 109.255 96.0308 96Z" fill="#1ABCFE"/>
<path fill-rule="evenodd" clip-rule="evenodd" d="M48.0308 144C48.0308 130.745 58.7759 120 72.0308 120H96.0308V144C96.0308 157.255 85.2856 168 72.0308 168C58.7759 168 48.0308 157.255 48.0308 144Z" fill="#0ACF83"/>
<path fill-rule="evenodd" clip-rule="evenodd" d="M96.0308 24V72H120.031C133.286 72 144.031 61.2548 144.031 48C144.031 34.7452 133.286 24 120.031 24H96.0308Z" fill="#FF7262"/>
<path fill-rule="evenodd" clip-rule="evenodd" d="M48.0308 48C48.0308 61.2548 58.7759 72 72.0308 72H96.0308V24H72.0308C58.7759 24 48.0308 34.7452 48.0308 48Z" fill="#F24E1E"/>
<path fill-rule="evenodd" clip-rule="evenodd" d="M48.0308 96C48.0308 109.255 58.7759 120 72.0308 120H96.0308V72H72.0308C58.7759 72 48.0308 82.7452 48.0308 96Z" fill="#A259FF"/>
</svg>
