<svg width="226" height="224" viewBox="0 0 226 224" fill="none" xmlns="http://www.w3.org/2000/svg">
<path d="M175.227 49.7778H50.0874V174.222H175.227V49.7778Z" fill="#F7DF1E"/>
<path d="M134.149 147.001C136.67 151.093 139.949 154.102 145.749 154.102C150.622 154.102 153.735 151.68 153.735 148.334C153.735 144.324 150.537 142.904 145.173 140.571L142.234 139.317C133.748 135.722 128.111 131.218 128.111 121.697C128.111 112.927 134.831 106.25 145.332 106.25C152.809 106.25 158.184 108.838 162.057 115.613L152.9 121.46C150.884 117.865 148.709 116.449 145.332 116.449C141.888 116.449 139.705 118.621 139.705 121.46C139.705 124.968 141.89 126.388 146.935 128.561L149.875 129.813C159.866 134.074 165.508 138.418 165.508 148.184C165.508 158.712 157.191 164.48 146.022 164.48C135.101 164.48 128.045 159.305 124.593 152.522L134.149 147.001ZM92.6088 148.014C94.4561 151.273 96.1366 154.029 100.177 154.029C104.04 154.029 106.477 152.526 106.477 146.681V106.918H118.237V146.839C118.237 158.947 111.098 164.458 100.677 164.458C91.2621 164.458 85.8096 159.613 83.0366 153.777L92.6088 148.014Z" fill="black"/>
</svg>
