<svg width="83" height="83" viewBox="0 0 83 83" fill="none" xmlns="http://www.w3.org/2000/svg">
<circle cx="41.7334" cy="41.7502" r="41.2534" fill="#1133B6"/>
<path d="M62.2043 21.84L58.4744 63.6247L41.7082 68.2728L24.9882 63.6312L21.2622 21.84H62.2043Z" fill="#264DE4"/>
<path d="M55.2818 60.964L58.4693 25.2571H41.7339V64.72L55.2818 60.964Z" fill="#2965F1"/>
<path d="M29.8042 40.7567L30.2636 45.8822H41.7335V40.7567H29.8042Z" fill="#EBEBEB"/>
<path d="M41.7333 30.3826H41.7155H28.8809L29.3468 35.5082H41.7333V30.3826Z" fill="#EBEBEB"/>
<path d="M41.7336 59.401V54.0683L41.7111 54.0743L36.0028 52.5329L35.6379 48.4451H32.8641H30.4927L31.2108 56.4929L41.71 59.4075L41.7336 59.401Z" fill="#EBEBEB"/>
<path d="M48.0273 45.8822L47.4324 52.5297L41.7158 54.0726V59.4051L52.2234 56.4929L52.3005 55.6269L53.505 42.1331L53.63 40.7568L54.5553 30.3826H41.7158V35.5082H48.9382L48.4718 40.7568H41.7158V45.8822H48.0273Z" fill="white"/>
</svg>
