<svg width="83" height="83" viewBox="0 0 83 83" fill="none" xmlns="http://www.w3.org/2000/svg">
<circle cx="41.7334" cy="41.2434" r="41.2534" fill="#001E36"/>
<path d="M20.9048 56.2949V25.8181C20.9048 25.6108 20.9914 25.4923 21.1936 25.4923C24.1777 25.4923 27.1606 25.3146 30.1456 25.3146C34.9891 25.3146 40.2336 26.9707 42.0719 32.0378C42.5051 33.2818 42.7361 34.5553 42.7361 35.8881C42.7361 38.4353 42.1586 40.5382 41.0035 42.1968C37.7768 46.8299 32.1843 46.7579 27.1712 46.7579V56.2652C27.2104 56.5467 26.9705 56.6799 26.738 56.6799H21.2513C21.0203 56.6799 20.9048 56.5614 20.9048 56.2949ZM27.2001 31.2085V41.1601C29.1878 41.3057 31.2678 41.3215 33.1777 40.6862C35.2861 40.078 36.4408 38.2529 36.4408 36.0659C36.4994 34.2023 35.4839 32.4142 33.7552 31.7416C31.8684 30.9571 29.2368 30.9101 27.2001 31.2085Z" fill="#31A8FF"/>
<path d="M60.7473 39.194C59.8736 38.7335 58.943 38.3966 57.981 38.1926C56.7448 37.9017 51.8691 36.883 51.8672 39.4324C51.9105 40.8557 54.1698 41.553 55.1681 41.9597C58.6726 43.1628 62.6384 45.3135 62.5605 49.6369C62.6677 55.0191 57.453 57.1706 52.983 57.1711C50.6559 57.1952 48.2317 56.8348 46.1021 55.8359C45.8988 55.7283 45.7679 55.4981 45.7766 55.2637V50.1137C45.7537 49.9073 45.9753 49.7268 46.1486 49.8753C48.2352 51.1373 50.7086 51.7499 53.1225 51.7827C54.1881 51.7827 56.3 51.6794 56.284 50.1137C56.284 48.6113 53.7576 47.9205 52.7505 47.5387C51.2907 47.0176 49.9065 46.2958 48.6359 45.393C46.8603 44.1264 45.7463 42.0957 45.7766 39.8615C45.7662 34.7938 50.5663 32.5192 54.8892 32.5181C56.9101 32.5014 59.0803 32.6511 60.9615 33.4718C61.232 33.5514 61.2881 33.8364 61.2869 34.0917V38.9078C61.3041 39.2068 60.9721 39.3086 60.7473 39.194Z" fill="#31A8FF"/>
</svg>
