<svg width="78" height="78" viewBox="0 0 78 78" fill="none" xmlns="http://www.w3.org/2000/svg">
<path fill-rule="evenodd" clip-rule="evenodd" d="M23.5 0C29.4375 0 34.8633 2.20312 39 5.83594C43.1367 2.20312 48.5625 0 54.5 0C67.4805 0 78 10.5215 78 23.5C78 29.4395 75.7969 34.8633 72.1641 39C75.7969 43.1367 78 48.5605 78 54.5C78 67.4785 67.4805 78 54.5 78C48.5625 78 43.1367 75.7969 39 72.1641C34.8633 75.7969 29.4375 78 23.5 78C10.5195 78 0 67.4785 0 54.5C0 50.6406 0.929688 46.998 2.57812 43.7852C3.46875 42.0547 4.5625 40.4492 5.83594 39C2.20312 34.8633 0 29.4395 0 23.5C0 10.5215 10.5195 0 23.5 0Z" fill="#54AD7D"/>
<circle cx="35.5" cy="22" r="1.5" fill="black"/>
<circle cx="42.5" cy="22" r="1.5" fill="black"/>
<path d="M31 29C31 31.6667 32.56 37 38.8 37C45.04 37 46.8667 31.6667 47 29" stroke="black" stroke-width="2" stroke-linecap="round"/>
</svg>
