<svg width="46" height="46" viewBox="0 0 46 46" fill="none" xmlns="http://www.w3.org/2000/svg">
<path fill-rule="evenodd" clip-rule="evenodd" d="M13.5927 0.915039C17.0189 0.915039 20.1483 2.18604 22.5352 4.28227C24.922 2.18604 28.0514 0.915039 31.4776 0.915039C38.9652 0.915039 45.0352 6.98509 45.0352 14.4729C45.0352 17.899 43.7644 21.0282 41.6684 23.415C43.7644 25.8018 45.0352 28.9311 45.0352 32.3572C45.0352 39.845 38.9652 45.915 31.4776 45.915C28.0514 45.915 24.922 44.644 22.5352 42.5478C20.1483 44.644 17.0189 45.915 13.5927 45.915C6.10507 45.915 0.0351562 39.845 0.0351562 32.3572C0.0351562 28.9311 1.30594 25.8018 3.40187 23.415C1.30594 21.0282 0.0351562 17.899 0.0351562 14.4729C0.0351562 6.98509 6.10507 0.915039 13.5927 0.915039Z" fill="#54AD7D"/>
</svg>
