<svg width="119" height="119" viewBox="0 0 119 119" fill="none" xmlns="http://www.w3.org/2000/svg">
<path fill-rule="evenodd" clip-rule="evenodd" d="M35.8526 0C44.9129 0 53.1882 3.36079 59.5 8.90375C65.8118 3.36079 74.0871 0 83.1474 0C102.948 0 119 16.0517 119 35.8526C119 44.9129 115.639 53.1882 110.096 59.5C115.639 65.8118 119 74.0871 119 83.1474C119 102.948 102.948 119 83.1474 119C74.0871 119 65.8118 115.639 59.5 110.096C53.1882 115.639 44.9129 119 35.8526 119C16.0517 119 0 102.948 0 83.1474C0 74.0871 3.36079 65.8118 8.90375 59.5C3.36079 53.1882 0 44.9129 0 35.8526C0 16.0517 16.0517 0 35.8526 0Z" fill="#54AD7D"/>
</svg>
