<svg width="526" height="361" viewBox="0 0 526 361" fill="none" xmlns="http://www.w3.org/2000/svg">
<path fill-rule="evenodd" clip-rule="evenodd" d="M185.3 33.0227C165.734 12.6676 138.229 0 107.765 0C48.3754 0 0.230469 48.1449 0.230469 107.535C0.230469 135.486 10.8947 160.946 28.3764 180.069C10.8947 199.192 0.230469 224.653 0.230469 252.604C0.230469 311.994 48.3754 360.139 107.765 360.139C138.229 360.139 165.734 347.471 185.3 327.116C204.867 347.471 232.372 360.139 262.835 360.139C293.299 360.139 320.804 347.471 340.371 327.116C359.937 347.471 387.442 360.139 417.906 360.139C477.296 360.139 525.44 311.994 525.44 252.604C525.44 224.653 514.776 199.192 497.294 180.069C514.776 160.946 525.44 135.486 525.44 107.535C525.44 48.1449 477.296 0 417.906 0C387.442 0 359.937 12.6676 340.371 33.0227C320.804 12.6676 293.299 0 262.835 0C232.372 0 204.867 12.6676 185.3 33.0227Z" fill="white"/>
</svg>
