<svg width="84" height="83" viewBox="0 0 84 83" fill="none" xmlns="http://www.w3.org/2000/svg">
<circle cx="42.2402" cy="41.2434" r="41.2534" fill="#330000"/>
<path d="M42.3252 50.6605H31.5854L29.4003 57.6225C29.3396 57.8812 29.1014 58.0644 28.8423 58.0517H23.4027C23.0925 58.0517 22.984 57.8769 23.0772 57.5272L32.3757 30.0607C32.4688 29.7747 32.5618 29.4488 32.6547 29.0832C32.7764 28.447 32.8386 27.8004 32.8407 27.152C32.8141 26.9605 32.9824 26.7913 33.1662 26.8182H40.5584C40.775 26.8182 40.899 26.8977 40.9304 27.0567L51.4843 57.5748C51.5772 57.893 51.4842 58.0519 51.2052 58.0517H45.1611C44.9492 58.0758 44.7467 57.9305 44.6963 57.7179L42.3252 50.6605ZM33.2591 44.6523H40.6049C39.398 40.5282 38.036 36.4582 36.9321 32.302C35.741 36.4652 34.4415 40.6117 33.2591 44.6523Z" fill="#FF9A00"/>
<path d="M57.7602 31.8726C57.286 31.8922 56.8131 31.8088 56.3724 31.6281C55.9318 31.4473 55.5333 31.1731 55.2031 30.8236C54.8737 30.4589 54.6179 30.031 54.4504 29.5645C54.2828 29.0981 54.2068 28.6022 54.2266 28.1056C54.2097 27.6138 54.2942 27.1239 54.4744 26.6678C54.6547 26.2118 54.9267 25.7999 55.2727 25.459C55.6154 25.1217 56.0199 24.8574 56.4628 24.6814C56.9057 24.5054 57.3783 24.4213 57.8531 24.4338C58.969 24.4338 59.8446 24.7756 60.48 25.459C60.8007 25.8142 61.0499 26.2308 61.2135 26.6849C61.377 27.1391 61.4516 27.6218 61.433 28.1056C61.4524 28.6042 61.374 29.1017 61.2023 29.5687C61.0306 30.0356 60.7691 30.4623 60.4334 30.8236C60.0826 31.1783 59.664 31.4546 59.2039 31.6352C58.7438 31.8157 58.2522 31.8966 57.7602 31.8726ZM54.5521 57.5747V34.7814C54.5521 34.4953 54.6756 34.3522 54.924 34.3522H60.6427C60.8904 34.3522 61.0144 34.4953 61.0147 34.7814V57.5747C61.0147 57.8928 60.8907 58.0518 60.6427 58.0515H54.9706C54.6917 58.0515 54.5522 57.8926 54.5521 57.5747Z" fill="#FF9A00"/>
</svg>
