<svg width="83" height="83" viewBox="0 0 83 83" fill="none" xmlns="http://www.w3.org/2000/svg">
<circle cx="41.7471" cy="41.2434" r="41.2534" fill="#F5F5F5"/>
<path fill-rule="evenodd" clip-rule="evenodd" d="M41.7471 41.2433C41.7471 36.829 45.3256 33.2505 49.7399 33.2505C54.1543 33.2505 57.7328 36.829 57.7328 41.2433C57.7328 45.6577 54.1543 49.2362 49.7399 49.2362C45.3256 49.2362 41.7471 45.6577 41.7471 41.2433Z" fill="#1ABCFE"/>
<path fill-rule="evenodd" clip-rule="evenodd" d="M25.7612 57.2291C25.7612 52.8147 29.3398 49.2362 33.7541 49.2362H41.7469V57.2291C41.7469 61.6434 38.1684 65.2219 33.7541 65.2219C29.3398 65.2219 25.7612 61.6434 25.7612 57.2291Z" fill="#0ACF83"/>
<path fill-rule="evenodd" clip-rule="evenodd" d="M41.7471 17.2648V33.2505H49.7399C54.1543 33.2505 57.7328 29.672 57.7328 25.2576C57.7328 20.8433 54.1543 17.2648 49.7399 17.2648H41.7471Z" fill="#FF7262"/>
<path fill-rule="evenodd" clip-rule="evenodd" d="M25.7612 25.2576C25.7612 29.672 29.3398 33.2505 33.7541 33.2505H41.7469V17.2648H33.7541C29.3398 17.2648 25.7612 20.8433 25.7612 25.2576Z" fill="#F24E1E"/>
<path fill-rule="evenodd" clip-rule="evenodd" d="M25.7612 41.2433C25.7612 45.6577 29.3398 49.2362 33.7541 49.2362H41.7469V33.2505H33.7541C29.3398 33.2505 25.7612 36.829 25.7612 41.2433Z" fill="#A259FF"/>
</svg>
