<svg width="84" height="83" viewBox="0 0 84 83" fill="none" xmlns="http://www.w3.org/2000/svg">
<circle cx="42.2402" cy="41.7502" r="41.2534" fill="#BA2F0C"/>
<path d="M25.4912 63.6453L21.7666 21.84H62.7142L58.9896 63.6228L42.2065 68.2728" fill="#E44D26"/>
<path d="M42.2402 64.718V25.2715H58.9782L55.7841 60.937" fill="#F16529"/>
<path d="M29.374 30.384H42.2407V35.5081H34.9947L35.4688 40.7564H42.2407V45.8692H30.7736L29.374 30.384ZM30.9993 48.4425H36.146L36.5071 52.5395L42.2407 54.0745V59.4243L31.7216 56.4898" fill="#EBEBEB"/>
<path d="M55.0614 30.384H42.2173V35.5081H54.5873L55.0614 30.384ZM54.1246 40.7564H42.2173V45.8805H48.5378L47.9396 52.5395L42.2173 54.0745V59.4018L52.7138 56.4898" fill="white"/>
</svg>
