<svg width="83" height="83" viewBox="0 0 83 83" fill="none" xmlns="http://www.w3.org/2000/svg">
<circle cx="41.7471" cy="41.7502" r="41.2534" fill="#F7DF1E"/>
<path d="M65.5832 18.0466H17.9111V65.4539H65.5832V18.0466Z" fill="#F7DF1E"/>
<path d="M49.9343 55.0837C50.8945 56.6429 52.1439 57.7889 54.3534 57.7889C56.2096 57.7889 57.3953 56.8663 57.3953 55.5916C57.3953 54.0641 56.1771 53.523 54.134 52.6343L53.0141 52.1565C49.7814 50.7869 47.6339 49.0712 47.6339 45.4442C47.6339 42.1031 50.1938 39.5597 54.1945 39.5597C57.0427 39.5597 59.0904 40.5455 60.5659 43.1265L57.0775 45.3539C56.3095 43.9844 55.4809 43.4448 54.1945 43.4448C52.8824 43.4448 52.0508 44.2726 52.0508 45.3539C52.0508 46.6903 52.8831 47.2314 54.8052 48.0591L55.9251 48.5362C59.7313 50.1593 61.8803 51.8141 61.8803 55.5344C61.8803 59.5452 58.712 61.7425 54.4571 61.7425C50.2967 61.7425 47.609 59.771 46.2938 57.1869L49.9343 55.0837ZM34.1094 55.4697C34.8132 56.7113 35.4533 57.7611 36.9925 57.7611C38.4642 57.7611 39.3927 57.1884 39.3927 54.9618V39.814H43.8724V55.022C43.8724 59.6348 41.1528 61.7342 37.1831 61.7342C33.5964 61.7342 31.5192 59.8884 30.4629 57.6651L34.1094 55.4697Z" fill="black"/>
</svg>
