<svg width="193" height="192" viewBox="0 0 193 192" fill="none" xmlns="http://www.w3.org/2000/svg">
<path d="M12.0308 72.8C12.0308 51.518 12.0308 40.877 16.1725 32.7484C19.8157 25.5982 25.629 19.7849 32.7791 16.1418C40.9078 12 51.5488 12 72.8308 12H119.231C140.513 12 151.154 12 159.282 16.1418C166.433 19.7849 172.246 25.5982 175.889 32.7484C180.031 40.877 180.031 51.518 180.031 72.8V119.2C180.031 140.482 180.031 151.123 175.889 159.252C172.246 166.402 166.433 172.215 159.282 175.858C151.154 180 140.513 180 119.231 180H72.8308C51.5488 180 40.9078 180 32.7791 175.858C25.629 172.215 19.8157 166.402 16.1725 159.252C12.0308 151.123 12.0308 140.482 12.0308 119.2V72.8Z" fill="#001E36"/>
<path d="M48.0308 135.097V61.2205C48.0308 60.7179 48.2408 60.4308 48.7308 60.4308C55.9645 60.4308 63.195 60 70.4308 60C82.1717 60 94.8847 64.0146 99.3408 76.2974C100.391 79.3128 100.951 82.4 100.951 85.6308C100.951 91.8051 99.5508 96.9026 96.7508 100.923C88.9292 112.154 75.3727 111.979 63.2208 111.979V135.026C63.3158 135.708 62.7344 136.031 62.1708 136.031H48.8708C48.3108 136.031 48.0308 135.744 48.0308 135.097ZM63.2908 74.2872V98.4103C68.1091 98.7633 73.1511 98.8016 77.7808 97.2616C82.8917 95.7872 85.6908 91.3629 85.6908 86.0616C85.8328 81.5441 83.3712 77.2097 79.1808 75.5795C74.6069 73.6777 68.228 73.5638 63.2908 74.2872Z" fill="#31A8FF"/>
<path d="M144.611 93.6443C142.493 92.5281 140.237 91.7115 137.905 91.2168C134.908 90.5116 123.089 88.0422 123.085 94.2222C123.19 97.6724 128.667 99.3627 131.086 100.348C139.582 103.265 149.195 108.478 149.006 118.958C149.266 132.005 136.625 137.22 125.79 137.222C120.149 137.28 114.272 136.406 109.11 133.985C108.617 133.724 108.3 133.166 108.321 132.598V120.114C108.266 119.614 108.803 119.176 109.223 119.536C114.281 122.595 120.276 124.08 126.128 124.16C128.711 124.16 133.83 123.909 133.791 120.114C133.791 116.472 127.667 114.798 125.226 113.872C121.687 112.609 118.332 110.859 115.252 108.671C110.948 105.601 108.248 100.678 108.321 95.2624C108.296 82.9781 119.932 77.4642 130.411 77.4616C135.309 77.4212 140.57 77.784 145.13 79.7734C145.786 79.9665 145.922 80.6572 145.919 81.2761V92.9506C145.96 93.6753 145.156 93.9221 144.611 93.6443Z" fill="#31A8FF"/>
</svg>
