<svg width="188" height="188" viewBox="0 0 188 188" fill="none" xmlns="http://www.w3.org/2000/svg">
<path fill-rule="evenodd" clip-rule="evenodd" d="M59.5 0C72.3608 0 84.269 4.08051 94 11.0175C103.731 4.08051 115.639 0 128.5 0C161.361 0 188 26.639 188 59.5C188 72.3611 183.919 84.269 176.982 94C183.919 103.731 188 115.639 188 128.5C188 161.361 161.361 188 128.5 188C115.639 188 103.731 183.919 94 176.983C84.269 183.919 72.3608 188 59.5 188C26.6392 188 0 161.361 0 128.5C0 115.639 4.08057 103.731 11.0176 94C4.08057 84.269 0 72.3611 0 59.5C0 26.639 26.6392 0 59.5 0Z" fill="#008A09"/>
</svg>
