<svg width="513" height="169" viewBox="0 0 513 169" fill="none" xmlns="http://www.w3.org/2000/svg">
<g clip-path="url(#clip0_41_1021)">
<path d="M496.2 103.569L510.403 113.037C505.794 119.828 494.767 131.477 475.705 131.477C452.033 131.477 434.403 113.162 434.403 89.8636C434.403 65.0702 452.22 48.2505 473.712 48.2505C495.328 48.2505 505.918 65.4439 509.344 74.7259L511.213 79.4603L455.521 102.51C459.757 110.857 466.361 115.093 475.705 115.093C485.049 115.093 491.528 110.483 496.2 103.569ZM452.531 88.5554L489.721 73.1062C487.666 67.9357 481.561 64.2603 474.272 64.2603C464.99 64.2603 452.095 72.4833 452.531 88.5554Z" fill="#FF302F"/>
<path d="M407.554 5.82764H425.495V127.677H407.554V5.82764Z" fill="#20B15A"/>
<path d="M379.272 51.4899H396.59V125.496C396.59 156.208 378.462 168.854 357.033 168.854C336.849 168.854 324.702 155.274 320.154 144.247L336.039 137.644C338.905 144.434 345.82 152.47 357.033 152.47C370.8 152.47 379.272 143.936 379.272 127.988V122.008H378.649C374.538 126.992 366.689 131.477 356.721 131.477C335.915 131.477 316.853 113.349 316.853 89.9882C316.853 66.503 335.915 48.1882 356.721 48.1882C366.626 48.1882 374.538 52.6112 378.649 57.4702H379.272V51.4899ZM380.518 89.9882C380.518 75.2866 370.738 64.5718 358.279 64.5718C345.695 64.5718 335.105 75.2866 335.105 89.9882C335.105 104.503 345.695 115.031 358.279 115.031C370.738 115.093 380.518 104.503 380.518 89.9882Z" fill="#3686F7"/>
<path d="M218.364 89.6769C218.364 113.661 199.675 131.29 176.751 131.29C153.826 131.29 135.138 113.598 135.138 89.6769C135.138 65.5687 153.826 48.0015 176.751 48.0015C199.675 48.0015 218.364 65.5687 218.364 89.6769ZM200.174 89.6769C200.174 74.7261 189.334 64.4474 176.751 64.4474C164.167 64.4474 153.328 74.7261 153.328 89.6769C153.328 104.503 164.167 114.906 176.751 114.906C189.334 114.906 200.174 104.503 200.174 89.6769Z" fill="#FF302F"/>
<path d="M309.253 89.8636C309.253 113.847 290.564 131.477 267.639 131.477C244.715 131.477 226.026 113.847 226.026 89.8636C226.026 65.7554 244.715 48.2505 267.639 48.2505C290.564 48.2505 309.253 65.6931 309.253 89.8636ZM291 89.8636C291 74.9128 280.161 64.6341 267.577 64.6341C254.994 64.6341 244.154 74.9128 244.154 89.8636C244.154 104.69 254.994 115.093 267.577 115.093C280.223 115.093 291 104.628 291 89.8636Z" fill="#FFBA40"/>
<path d="M66.7375 113.224C40.6359 113.224 20.2031 92.1687 20.2031 66.067C20.2031 39.9654 40.6359 18.9096 66.7375 18.9096C80.8162 18.9096 91.0949 24.4539 98.6949 31.5555L111.216 19.0342C100.626 8.88011 86.4851 1.15552 66.7375 1.15552C30.9801 1.15552 0.891602 30.3096 0.891602 66.067C0.891602 101.824 30.9801 130.979 66.7375 130.979C86.049 130.979 100.626 124.624 112.026 112.788C123.738 101.077 127.351 84.6309 127.351 71.2998C127.351 67.126 126.852 62.8277 126.292 59.6506H66.7375V76.9687H109.16C107.915 87.808 104.488 95.2211 99.4424 100.267C93.3375 106.434 83.6818 113.224 66.7375 113.224Z" fill="#3686F7"/>
</g>
<defs>
<clipPath id="clip0_41_1021">
<rect width="512" height="168" fill="white" transform="translate(0.147461 0.896484)"/>
</clipPath>
</defs>
</svg>
