<svg width="137" height="80" viewBox="0 0 137 80" fill="none" xmlns="http://www.w3.org/2000/svg">
<path d="M11.4773 10.3028H8.72672L8.55481 10.4747V30.7599L8.72672 30.9318H11.4773V32.1352H2.53801V30.9318H5.28855L5.46046 30.7599V10.4747L5.28855 10.3028H2.53801V9.0994H11.4773V10.3028ZM17.3356 8.75558C18.0232 8.75558 18.5389 8.99626 18.8828 9.4776C19.2266 9.95894 19.3985 10.5434 19.3985 11.2311C19.3985 12.2167 19.261 13.1221 18.9859 13.9472C18.7109 14.7495 18.3327 15.4944 17.8513 16.182C17.37 16.8697 16.8199 17.5458 16.201 18.2106L15.2727 17.4198C16.0062 16.6175 16.6136 15.7809 17.0949 14.9099C17.5763 14.0389 17.8169 13.2367 17.8169 12.5032C17.7252 12.5261 17.6336 12.5376 17.5419 12.5376C17.4731 12.5376 17.4043 12.5376 17.3356 12.5376C16.8313 12.5376 16.3844 12.3542 15.9947 11.9875C15.628 11.5978 15.4446 11.1508 15.4446 10.6466C15.4446 10.1194 15.628 9.67243 15.9947 9.30569C16.3844 8.93895 16.8313 8.75558 17.3356 8.75558ZM48.9775 30.9318H51.5562V32.1352H43.4764V30.9318H45.8832L46.0551 30.7599V21.133C46.0551 20.0099 45.8602 19.1274 45.4706 18.4856C45.0809 17.8438 44.3589 17.5229 43.3045 17.5229C42.3418 17.5229 41.4708 17.8553 40.6915 18.52C39.9351 19.1618 39.087 20.262 38.1473 21.8206V30.7599L38.3192 30.9318H40.7259V32.1352H32.8181V30.9318H35.2248L35.3967 30.7599V21.133C35.3967 20.0099 35.2019 19.1274 34.8122 18.4856C34.4226 17.8438 33.7006 17.5229 32.6462 17.5229C31.6835 17.5229 30.8125 17.8553 30.0332 18.52C29.2768 19.1618 28.4287 20.262 27.4889 21.8206V30.7599L27.6608 30.9318H30.0676V32.1352H21.9879V30.9318H24.5665L24.7384 30.7599V17.6948L24.5665 17.5229H21.9879V16.3196C22.5838 16.3196 23.1568 16.3196 23.7069 16.3196C24.28 16.2966 24.8415 16.2737 25.3917 16.2508C25.9647 16.2279 26.5492 16.1935 27.1451 16.1477L27.317 16.3196V19.5858H27.4889C28.1537 18.5085 28.933 17.6375 29.8269 16.9728C30.7208 16.3081 31.9127 15.9757 33.4026 15.9757C34.9612 15.9757 36.0958 16.3196 36.8064 17.0072C37.5399 17.6948 37.9754 18.5658 38.1129 19.6202C38.7776 18.4742 39.5684 17.5802 40.4852 16.9384C41.4021 16.2966 42.594 15.9757 44.0609 15.9757C45.2528 15.9757 46.1926 16.182 46.8802 16.5946C47.5679 16.9843 48.0607 17.5229 48.3587 18.2106C48.6566 18.8753 48.8056 19.6202 48.8056 20.4454V30.7599L48.9775 30.9318Z" fill="white"/>
<path d="M6.05641 70.285C4.85177 70.285 3.84324 70.0749 3.03081 69.6547C2.21839 69.2345 1.60206 68.6742 1.18184 67.9738C0.761618 67.2454 0.551508 66.5031 0.551508 65.7467C0.551508 64.7101 0.85967 63.8977 1.47599 63.3094C2.09232 62.7211 2.8067 62.4269 3.61912 62.4269C4.37552 62.4269 4.99185 62.665 5.4681 63.1413C5.94435 63.5895 6.18247 64.1778 6.18247 64.9062C6.18247 65.7747 5.8603 66.475 5.21596 67.0073C4.57162 67.5396 3.87126 67.8057 3.11486 67.8057C2.8067 67.8057 2.54055 67.7077 2.31644 67.5116C2.09232 67.3155 1.91022 67.0914 1.77015 66.8392C1.65809 66.5591 1.58805 66.3069 1.56004 66.0828H2.65261C2.70864 66.2789 2.79269 66.5311 2.90475 66.8392C3.04482 67.1194 3.21291 67.3995 3.40901 67.6797C3.63313 67.9598 3.91328 68.1979 4.24945 68.394C4.61365 68.5902 5.04788 68.6882 5.55214 68.6882C6.39258 68.6882 7.177 68.366 7.90538 67.7217C8.63376 67.0493 9.09601 65.8727 9.29211 64.1918L12.1916 43.4749H17.2763L14.5869 62.679C14.3628 64.1918 13.9426 65.4385 13.3262 66.419C12.7379 67.3995 12.0235 68.1839 11.1831 68.7722C10.3427 69.3325 9.47421 69.7247 8.57773 69.9489C7.68126 70.173 6.84082 70.285 6.05641 70.285ZM9.25009 41.71H20.6801L20.47 43.1808H17.5705L17.2763 43.4749H12.1916L11.8975 43.1808H9.03998L9.25009 41.71ZM30.0113 65.7887L31.314 66.5031C30.6416 67.9318 29.8852 68.9263 29.0448 69.4866C28.2324 70.0189 27.3079 70.285 26.2713 70.285C24.8986 70.285 23.8341 69.8508 23.0777 68.9824C22.3213 68.0859 22.0691 66.7272 22.3213 64.9062L24.1702 51.9214L23.8761 51.6272H21.0186L21.2287 50.1564C22.4333 50.1564 23.666 50.1424 24.9266 50.1144C26.1873 50.0584 27.3779 49.9603 28.4985 49.8203L28.7927 50.1564L26.5655 65.6626C26.4534 66.5871 26.4815 67.2454 26.6495 67.6376C26.8456 68.0018 27.1398 68.1839 27.532 68.1839C27.9802 68.1839 28.4005 67.9598 28.7927 67.5116C29.2129 67.0633 29.6191 66.489 30.0113 65.7887ZM26.9017 46.3745C26.2013 46.3745 25.641 46.1363 25.2208 45.6601C24.8006 45.1558 24.6185 44.5535 24.6745 43.8531C24.7305 43.0127 25.0387 42.2843 25.599 41.668C26.1593 41.0236 26.8597 40.7015 27.7001 40.7015C28.4285 40.7015 28.9888 40.9536 29.381 41.4579C29.8012 41.9341 29.9693 42.5224 29.8852 43.2228C29.8292 44.0352 29.5211 44.7636 28.9608 45.4079C28.4285 46.0523 27.7421 46.3745 26.9017 46.3745ZM41.9325 70.285C40.3917 70.285 38.9909 69.9769 37.7303 69.3606C36.4976 68.7162 35.5171 67.7497 34.7887 66.461C34.0883 65.1724 33.7381 63.5475 33.7381 61.5865C33.7381 59.2332 34.2424 57.1741 35.2509 55.4092C36.2875 53.6163 37.6882 52.2295 39.4532 51.249C41.2461 50.2405 43.2492 49.7362 45.4623 49.7362C46.4989 49.7362 47.4794 49.8623 48.4039 50.1144C49.3564 50.3385 50.1408 50.7448 50.7571 51.3331C51.3734 51.9214 51.6816 52.7058 51.6816 53.6863C51.6816 54.6668 51.3454 55.5633 50.6731 56.3757C50.0007 57.1881 49.0482 57.9025 47.8156 58.5188C46.6109 59.1352 45.1682 59.6394 43.4873 60.0316C41.8064 60.4239 39.9434 60.704 37.8983 60.8721V59.5274C39.4672 59.3873 40.8259 59.1352 41.9745 58.771C43.1231 58.3788 44.0756 57.9165 44.832 57.3843C45.5884 56.852 46.1487 56.2777 46.5129 55.6613C46.9051 55.017 47.1012 54.3587 47.1012 53.6863C47.1012 52.8459 46.9051 52.2295 46.5129 51.8373C46.1207 51.4171 45.5604 51.207 44.832 51.207C43.8515 51.207 42.969 51.5292 42.1846 52.1735C41.4282 52.7898 40.7699 53.6163 40.2096 54.6528C39.6493 55.6894 39.215 56.838 38.9069 58.0986C38.6267 59.3313 38.4866 60.5779 38.4866 61.8386C38.4866 63.3794 38.6968 64.6401 39.117 65.6206C39.5652 66.5731 40.1535 67.2735 40.8819 67.7217C41.6103 68.1699 42.4087 68.394 43.2772 68.394C44.3417 68.394 45.3783 68.0439 46.3868 67.3435C47.4234 66.6431 48.2778 65.7747 48.9502 64.7381L50.2528 65.4525C49.7486 66.321 49.0902 67.1194 48.2778 67.8478C47.4934 68.5761 46.5689 69.1645 45.5043 69.6127C44.4678 70.0609 43.2772 70.285 41.9325 70.285ZM74.2731 65.7887L75.5758 66.5031C74.9034 67.9318 74.147 68.9263 73.3066 69.4866C72.4941 70.0189 71.5697 70.285 70.5331 70.285C69.4125 70.285 68.488 69.9909 67.7597 69.4026C67.0313 68.7863 66.6251 67.8618 66.541 66.6291C65.8406 67.7497 64.9442 68.6462 63.8516 69.3185C62.787 69.9629 61.5404 70.285 60.1116 70.285C58.1506 70.285 56.7639 69.7107 55.9514 68.5621C55.167 67.4135 54.9149 65.8867 55.195 63.9817L56.8339 51.9214L56.4977 51.6272H53.6822L53.8924 50.1564C55.069 50.1564 56.2876 50.1424 57.5483 50.1144C58.8089 50.0584 59.9996 49.9603 61.1202 49.8203L61.4143 50.1564L59.5233 64.0237C59.4113 64.8362 59.3973 65.5646 59.4813 66.2089C59.5653 66.8532 59.7755 67.3435 60.1116 67.6797C60.4478 68.0158 60.9381 68.1839 61.5824 68.1839C62.8431 68.1839 64.0057 67.5116 65.0702 66.1669C66.1628 64.7942 66.8912 62.8331 67.2554 60.2838L68.432 51.9214L68.1379 51.6272H65.2804L65.4905 50.1564C66.6951 50.1564 67.9277 50.1424 69.1884 50.1144C70.4491 50.0584 71.6397 49.9603 72.7603 49.8203L73.0544 50.1564L70.8273 65.6626C70.7152 66.5871 70.7432 67.2454 70.9113 67.6376C71.1074 68.0018 71.4016 68.1839 71.7938 68.1839C72.242 68.1839 72.6622 67.9598 73.0544 67.5116C73.4747 67.0633 73.8809 66.489 74.2731 65.7887ZM98.9013 65.7887L100.162 66.5031C99.4896 67.9318 98.7332 68.9263 97.8928 69.4866C97.0804 70.0189 96.1559 70.285 95.1193 70.285C93.7746 70.285 92.7101 69.8368 91.9257 68.9403C91.1412 68.0439 90.9031 66.6151 91.2113 64.6541L92.514 56.2497C92.654 55.4372 92.6961 54.6948 92.64 54.0225C92.584 53.3501 92.3739 52.8178 92.0097 52.4256C91.6735 52.0054 91.1132 51.7953 90.3288 51.7953C89.8246 51.7953 89.2643 51.9214 88.6479 52.1735C88.0596 52.3976 87.4853 52.7898 86.925 53.3501C86.3647 53.9104 85.8605 54.6808 85.4122 55.6613C84.964 56.6138 84.6418 57.8185 84.4457 59.2752L82.9749 69.8648H78.6046L81.126 51.9214L80.7898 51.6272H78.1424L78.3525 50.1564C79.4451 50.1564 80.5657 50.1424 81.7143 50.1144C82.8629 50.0864 83.9975 50.0304 85.1181 49.9463L85.4122 50.2405L84.992 53.14H85.2862C85.9305 52.1595 86.785 51.3471 87.8495 50.7027C88.9421 50.0584 90.2448 49.7362 91.7576 49.7362C93.7746 49.7362 95.2174 50.3105 96.0858 51.4591C96.9543 52.6077 97.2345 54.1345 96.9263 56.0395L95.4555 65.6626C95.3154 66.5871 95.3435 67.2454 95.5396 67.6376C95.7357 68.0018 96.0158 68.1839 96.38 68.1839C96.8282 68.1839 97.2485 67.9598 97.6407 67.5116C98.0609 67.0633 98.4811 66.489 98.9013 65.7887Z" fill="white"/>
</svg>
