<svg width="59" height="34" viewBox="0 0 59 34" fill="none" xmlns="http://www.w3.org/2000/svg">
<path d="M4.8956 3.57967H3.70879L3.63462 3.65385V12.4066L3.70879 12.4808H4.8956V13H1.03846V12.4808H2.22527L2.29945 12.4066V3.65385L2.22527 3.57967H1.03846V3.06044H4.8956V3.57967ZM7.42338 2.91209C7.72008 2.91209 7.94261 3.01593 8.09096 3.22363C8.23931 3.43132 8.31349 3.68352 8.31349 3.98022C8.31349 4.40549 8.25415 4.79615 8.13547 5.1522C8.01678 5.49835 7.8536 5.81978 7.6459 6.11648C7.43821 6.41319 7.20085 6.70494 6.93382 6.99176L6.53327 6.65055C6.84975 6.3044 7.11184 5.94341 7.31953 5.56758C7.52722 5.19176 7.63107 4.8456 7.63107 4.52912C7.59151 4.53901 7.55195 4.54396 7.51239 4.54396C7.48272 4.54396 7.45305 4.54396 7.42338 4.54396C7.20579 4.54396 7.01294 4.46483 6.84481 4.30659C6.68656 4.13846 6.60744 3.9456 6.60744 3.72802C6.60744 3.50055 6.68656 3.30769 6.84481 3.14945C7.01294 2.99121 7.20579 2.91209 7.42338 2.91209ZM21.0764 12.4808H22.189V13H18.7027V12.4808H19.7412L19.8154 12.4066V8.25275C19.8154 7.76813 19.7313 7.38736 19.5632 7.11044C19.395 6.83352 19.0835 6.69505 18.6286 6.69505C18.2132 6.69505 17.8374 6.83846 17.5011 7.12527C17.1747 7.4022 16.8088 7.87692 16.4033 8.54945V12.4066L16.4775 12.4808H17.5159V13H14.1038V12.4808H15.1423L15.2165 12.4066V8.25275C15.2165 7.76813 15.1324 7.38736 14.9643 7.11044C14.7961 6.83352 14.4846 6.69505 14.0297 6.69505C13.6143 6.69505 13.2385 6.83846 12.9022 7.12527C12.5758 7.4022 12.2099 7.87692 11.8044 8.54945V12.4066L11.8786 12.4808H12.917V13H9.43076V12.4808H10.5434L10.6176 12.4066V6.76923L10.5434 6.69505H9.43076V6.17582C9.6879 6.17582 9.93516 6.17582 10.1725 6.17582C10.4198 6.16593 10.6621 6.15604 10.8994 6.14615C11.1467 6.13626 11.3989 6.12143 11.656 6.10165L11.7302 6.17582V7.58516H11.8044C12.0912 7.12033 12.4275 6.74451 12.8132 6.45769C13.1989 6.17088 13.7132 6.02747 14.356 6.02747C15.0286 6.02747 15.5181 6.17582 15.8247 6.47253C16.1412 6.76923 16.3291 7.14505 16.3885 7.6C16.6753 7.10549 17.0165 6.71978 17.4121 6.44286C17.8077 6.16593 18.322 6.02747 18.9549 6.02747C19.4692 6.02747 19.8747 6.11648 20.1714 6.29451C20.4681 6.46264 20.6808 6.69505 20.8093 6.99176C20.9379 7.27857 21.0022 7.6 21.0022 7.95604V12.4066L21.0764 12.4808Z" fill="black"/>
<path d="M2.55659 30.1813C2.03681 30.1813 1.60165 30.0907 1.2511 29.9093C0.90055 29.728 0.634615 29.4863 0.453297 29.1841C0.271978 28.8698 0.181319 28.5495 0.181319 28.2231C0.181319 27.7758 0.314286 27.4253 0.58022 27.1714C0.846154 26.9176 1.1544 26.7907 1.50495 26.7907C1.83132 26.7907 2.09725 26.8934 2.30275 27.0989C2.50824 27.2923 2.61099 27.5462 2.61099 27.8604C2.61099 28.2352 2.47198 28.5374 2.19396 28.767C1.91593 28.9967 1.61374 29.1115 1.28736 29.1115C1.1544 29.1115 1.03956 29.0692 0.942857 28.9846C0.846154 28.9 0.767582 28.8033 0.707143 28.6945C0.658791 28.5736 0.628571 28.4648 0.616484 28.3681H1.08791C1.11209 28.4527 1.14835 28.5615 1.1967 28.6945C1.25714 28.8154 1.32967 28.9363 1.41429 29.0571C1.51099 29.178 1.63187 29.2808 1.77692 29.3654C1.93407 29.45 2.12143 29.4923 2.33901 29.4923C2.70165 29.4923 3.04011 29.3533 3.3544 29.0753C3.66868 28.7852 3.86813 28.2775 3.95275 27.5522L5.20385 18.6132H7.3978L6.23736 26.8995C6.14066 27.5522 5.95934 28.0901 5.69341 28.5132C5.43956 28.9363 5.13132 29.2747 4.76868 29.5286C4.40604 29.7703 4.03132 29.9396 3.64451 30.0363C3.25769 30.133 2.89506 30.1813 2.55659 30.1813ZM3.93462 17.8516H8.86648L8.77582 18.4863H7.52473L7.3978 18.6132H5.20385L5.07692 18.4863H3.84396L3.93462 17.8516ZM12.8928 28.2412L13.4548 28.5495C13.1647 29.1659 12.8384 29.5951 12.4757 29.8368C12.1252 30.0665 11.7263 30.1813 11.279 30.1813C10.6867 30.1813 10.2274 29.994 9.90099 29.6192C9.57462 29.2324 9.46583 28.6462 9.57462 27.8604L10.3724 22.2577L10.2455 22.1308H9.01253L9.10319 21.4962C9.62297 21.4962 10.1548 21.4901 10.6988 21.478C11.2428 21.4538 11.7565 21.4115 12.24 21.3511L12.3669 21.4962L11.4059 28.1868C11.3576 28.5857 11.3697 28.8698 11.4422 29.039C11.5268 29.1962 11.6537 29.2747 11.823 29.2747C12.0164 29.2747 12.1977 29.178 12.3669 28.9846C12.5482 28.7912 12.7235 28.5434 12.8928 28.2412ZM11.551 19.8643C11.2488 19.8643 11.007 19.7615 10.8257 19.556C10.6444 19.3385 10.5658 19.0786 10.59 18.7764C10.6142 18.4137 10.7471 18.0994 10.9889 17.8335C11.2307 17.5555 11.5329 17.4165 11.8955 17.4165C12.2098 17.4165 12.4515 17.5253 12.6208 17.7429C12.8021 17.9484 12.8746 18.2022 12.8384 18.5044C12.8142 18.8549 12.6812 19.1692 12.4395 19.4473C12.2098 19.7253 11.9136 19.8643 11.551 19.8643ZM18.0365 30.1813C17.3717 30.1813 16.7673 30.0484 16.2233 29.7824C15.6915 29.5044 15.2684 29.0874 14.9541 28.5313C14.6519 27.9753 14.5008 27.2742 14.5008 26.428C14.5008 25.4126 14.7184 24.5242 15.1536 23.7626C15.6008 22.989 16.2052 22.3907 16.9668 21.9676C17.7404 21.5324 18.6047 21.3148 19.5596 21.3148C20.0069 21.3148 20.4299 21.3692 20.8288 21.478C21.2398 21.5747 21.5783 21.75 21.8442 22.0038C22.1102 22.2577 22.2431 22.5962 22.2431 23.0192C22.2431 23.4423 22.0981 23.8291 21.808 24.1797C21.5179 24.5302 21.1069 24.8385 20.575 25.1044C20.0552 25.3703 19.4327 25.5879 18.7074 25.7571C17.9821 25.9264 17.1783 26.0473 16.2959 26.1198V25.5396C16.9728 25.4791 17.5591 25.3703 18.0547 25.2132C18.5503 25.044 18.9613 24.8445 19.2876 24.6148C19.614 24.3852 19.8558 24.1374 20.0129 23.8714C20.1821 23.5934 20.2668 23.3093 20.2668 23.0192C20.2668 22.6566 20.1821 22.3907 20.0129 22.2214C19.8437 22.0401 19.6019 21.9494 19.2876 21.9494C18.8646 21.9494 18.4838 22.0885 18.1453 22.3665C17.819 22.6324 17.5349 22.989 17.2931 23.4363C17.0514 23.8835 16.864 24.3791 16.731 24.9231C16.6102 25.4549 16.5497 25.9929 16.5497 26.5368C16.5497 27.2016 16.6404 27.7456 16.8217 28.1687C17.0151 28.5797 17.269 28.8819 17.5832 29.0753C17.8975 29.2687 18.242 29.3654 18.6168 29.3654C19.0761 29.3654 19.5233 29.2143 19.9585 28.9121C20.4058 28.6099 20.7744 28.2352 21.0646 27.7879L21.6266 28.0962C21.4091 28.4709 21.125 28.8154 20.7744 29.1297C20.436 29.444 20.0371 29.6978 19.5777 29.8912C19.1305 30.0846 18.6168 30.1813 18.0365 30.1813ZM31.991 28.2412L32.5531 28.5495C32.263 29.1659 31.9366 29.5951 31.574 29.8368C31.2234 30.0665 30.8245 30.1813 30.3773 30.1813C29.8937 30.1813 29.4948 30.0544 29.1806 29.8005C28.8663 29.5346 28.691 29.1357 28.6547 28.6038C28.3525 29.0874 27.9657 29.4742 27.4943 29.7643C27.0349 30.0423 26.497 30.1813 25.8806 30.1813C25.0344 30.1813 24.436 29.9335 24.0855 29.4379C23.747 28.9423 23.6382 28.2835 23.7591 27.4615L24.4663 22.2577L24.3212 22.1308H23.1064L23.197 21.4962C23.7047 21.4962 24.2306 21.4901 24.7745 21.478C25.3185 21.4538 25.8322 21.4115 26.3157 21.3511L26.4426 21.4962L25.6267 27.4797C25.5784 27.8302 25.5723 28.1445 25.6086 28.4225C25.6448 28.7005 25.7355 28.9121 25.8806 29.0571C26.0256 29.2022 26.2371 29.2747 26.5152 29.2747C27.0591 29.2747 27.5608 28.9846 28.0201 28.4044C28.4915 27.8121 28.8058 26.9659 28.963 25.8659L29.4707 22.2577L29.3437 22.1308H28.1108L28.2014 21.4962C28.7212 21.4962 29.2531 21.4901 29.797 21.478C30.341 21.4538 30.8547 21.4115 31.3382 21.3511L31.4652 21.4962L30.5042 28.1868C30.4558 28.5857 30.4679 28.8698 30.5404 29.039C30.6251 29.1962 30.752 29.2747 30.9212 29.2747C31.1146 29.2747 31.2959 29.178 31.4652 28.9846C31.6465 28.7912 31.8218 28.5434 31.991 28.2412ZM42.6177 28.2412L43.1616 28.5495C42.8715 29.1659 42.5452 29.5951 42.1825 29.8368C41.832 30.0665 41.4331 30.1813 40.9858 30.1813C40.4056 30.1813 39.9463 29.9879 39.6078 29.6011C39.2693 29.2143 39.1666 28.5978 39.2996 27.7516L39.8616 24.1253C39.9221 23.7747 39.9402 23.4544 39.916 23.1643C39.8919 22.8742 39.8012 22.6445 39.6441 22.4753C39.499 22.294 39.2572 22.2033 38.9188 22.2033C38.7012 22.2033 38.4594 22.2577 38.1935 22.3665C37.9397 22.4632 37.6919 22.6324 37.4501 22.8742C37.2083 23.1159 36.9908 23.4484 36.7974 23.8714C36.6039 24.2824 36.4649 24.8022 36.3803 25.4308L35.7457 30H33.86L34.9479 22.2577L34.8028 22.1308H33.6605L33.7512 21.4962C34.2226 21.4962 34.7061 21.4901 35.2017 21.478C35.6974 21.4659 36.1869 21.4418 36.6704 21.4055L36.7974 21.5324L36.616 22.7835H36.743C37.021 22.3604 37.3897 22.0099 37.849 21.7319C38.3204 21.4538 38.8825 21.3148 39.5353 21.3148C40.4056 21.3148 41.0281 21.5626 41.4028 22.0582C41.7776 22.5538 41.8985 23.2126 41.7655 24.0346L41.1309 28.1868C41.0704 28.5857 41.0825 28.8698 41.1671 29.039C41.2517 29.1962 41.3726 29.2747 41.5298 29.2747C41.7232 29.2747 41.9045 29.178 42.0737 28.9846C42.255 28.7912 42.4364 28.5434 42.6177 28.2412Z" fill="black"/>
</svg>
